<svg xmlns="http://www.w3.org/2000/svg" width="64" height="64" fill="none" id="filter">
  <path fill="#2B3151" fill-rule="evenodd" d="M46.667 53.333a2.667 2.667 0 1 0 0-5.333 2.667 2.667 0 0 0 0 5.333Zm0 2.667a5.333 5.333 0 1 0 0-10.667 5.333 5.333 0 0 0 0 10.667Z" clip-rule="evenodd"></path>
  <path fill="#2B3151" fill-rule="evenodd" d="M51.832 52a5.343 5.343 0 0 0 0-2.667h2.835a1.333 1.333 0 0 1 0 2.667h-2.835zm-10.33 0H9.332a1.333 1.333 0 0 1 0-2.667h32.168a5.342 5.342 0 0 0 0 2.667zm5.165-36a2.667 2.667 0 1 0 0-5.333 2.667 2.667 0 0 0 0 5.333zm0 2.667a5.333 5.333 0 1 0 0-10.667 5.333 5.333 0 0 0 0 10.667z" clip-rule="evenodd"></path>
  <path fill="#2B3151" fill-rule="evenodd" d="M51.832 14.667a5.343 5.343 0 0 0 0-2.667h2.835a1.333 1.333 0 0 1 0 2.667h-2.835zm-10.33 0H9.332a1.333 1.333 0 0 1 0-2.667h32.168a5.342 5.342 0 0 0 0 2.667zm-22.835 20a2.667 2.667 0 1 0 0-5.333 2.667 2.667 0 0 0 0 5.333zm0 2.667a5.333 5.333 0 1 0 0-10.667 5.333 5.333 0 0 0 0 10.667z" clip-rule="evenodd"></path>
  <path fill="#2B3151" fill-rule="evenodd" d="M23.832 33.334a5.343 5.343 0 0 0 0-2.667h30.835a1.333 1.333 0 0 1 0 2.667H23.832Zm-10.33 0H9.332a1.333 1.333 0 0 1 0-2.667h4.168a5.342 5.342 0 0 0 0 2.667Z" clip-rule="evenodd"></path>
</svg>
